<?xml version="1.0" encoding="UTF-8"?>
<svg width="160px" height="70px" viewBox="0 0 160 70" version="1.1" xmlns="http://www.w3.org/2000/svg" xmlns:xlink="http://www.w3.org/1999/xlink">
    <!-- Generator: Sketch 49.3 (51167) - http://www.bohemiancoding.com/sketch -->
    <title>mango-logo-bar</title>
    <desc>Created with Sketch.</desc>
    <defs></defs>
    <g id="mango-logo-bar" stroke="none" stroke-width="1" fill="none" fill-rule="evenodd">
        <path d="M89.6928508,34.6695237 L89.6928508,34.6809078 L89.6928508,34.6695237 L89.5783925,34.6695237 C89.9117304,30.8789206 93.7848515,28.0907263 98.1700633,28.0907263 C100.774279,28.0907263 103.11483,29.0609116 104.6953,30.623093 L102.874896,32.2357867 C101.765802,31.0868486 100.059704,30.348541 98.1350095,30.348541 C95.0750936,30.348541 92.5477345,32.2305613 92.1455953,34.6695237 L89.6928508,34.6695237 Z M43.8620207,34.8961108 L47.8498833,28.3946059 L50.2183026,28.3946059 L50.2183026,42.2426088 L47.8977829,42.2426088 L47.8977829,32.7234268 L45.1988561,37.0206774 L43.8620207,34.8961108 Z M35,28.3945841 L37.3470822,28.3945841 L43.9578853,39.02003 L42.6132119,41.1737719 L37.3285755,32.7262354 L37.3285755,42.242587 L35,42.242587 L35,28.3945841 Z M64.6769169,37.9483192 L57.7795869,37.9511496 L55.5657528,42.2427394 L52.9467312,42.2427394 L58.8658201,30.7483505 L60.1373377,33.349954 L58.9204692,35.7438473 L63.5932965,35.7438473 L60.0746327,28.4025747 L60.0774631,28.3945188 L62.5991613,28.3945188 L69.6284331,42.2427394 L66.8280461,42.2427394 L64.6769169,37.9483192 Z M85.9796927,28.3945406 L85.9796927,37.4578051 L83.6526413,35.1226978 L83.6526413,28.3945406 L85.9796927,28.3945406 Z M74.739934,28.3945406 L85.9769712,40.5553876 L85.9769712,42.2427612 L84.2445284,42.2427612 L74.6985661,31.89448 L74.6985661,42.2427612 L72.372821,42.2427612 L72.372821,28.3945406 L74.739934,28.3945406 Z M97.9193087,40.3073546 L98.1725236,40.3073546 C98.7695273,40.3073546 99.5026094,40.2355051 100.070438,40.102257 C101.134028,39.8675488 102.869301,39.198478 102.869301,38.0336459 L102.869301,36.9859502 L97.8846903,36.9859502 L97.8953589,34.6669545 L105.207456,34.6669545 L105.207456,38.3482594 C105.207456,40.4194833 102.997323,41.7389005 100.97683,42.2348795 C100.081106,42.455871 99.0042355,42.551888 98.0658381,42.551888 C94.0326886,42.551888 90.6287662,40.3208535 89.7622182,36.9859502 L92.374708,36.9859502 C93.1929209,38.9213132 95.3682176,40.3073546 97.9193087,40.3073546 Z M125,35.330604 C125,39.0439145 121.77962,41.9921372 117.807869,42.4717868 L117.807869,40.1556216 C120.484371,39.6890356 122.499639,37.6763799 122.499639,35.2613673 C122.499639,32.496905 119.868643,30.2578147 116.61887,30.2578147 C113.372145,30.2578147 110.738536,32.496905 110.738536,35.2613673 C110.738536,37.6951043 112.785593,39.7236539 115.494099,40.1660724 L115.494099,42.4774476 C111.351652,41.9947499 108.278019,38.9320036 108.278019,35.1067821 C108.278019,31.0549082 112.191202,28 116.650876,28 C121.251853,28 125,31.2014376 125,35.330604 Z" id="Combined-Shape" fill="#00112C"></path>
    </g>
</svg>