<svg width="160" height="70" viewBox="0 0 160 70" fill="none" xmlns="http://www.w3.org/2000/svg">
<path d="M87.682 32.1525C87.682 30.2542 87.682 28.0444 87.6672 25.5381C87.3261 25.9533 86.8515 26.3241 86.2435 26.6504C85.1608 27.2436 84.36 27.6588 83.8557 27.911C83.3515 28.1483 83.0252 28.43 82.8769 28.7415C82.7286 29.0381 82.6396 29.2161 82.6396 29.2457L82.6841 48.8368C83.5443 48.8368 84.1524 48.8072 84.4638 48.7627C85.146 48.733 85.8134 48.4364 86.4659 47.8728C87.1926 47.2351 87.593 46.4788 87.6672 45.6038V41.3177V33.9766V33.7987V32.8644V32.5529V32.1525H87.682Z" fill="#00112C"/>
<path d="M101.386 30.2394C101.326 30.1504 100.926 29.5424 100.184 28.4449L96.5953 23.0318C95.9428 22.2309 95.142 21.6674 94.1928 21.3856L89.7437 21.1187L99.0424 34.9555L99.0869 35H99.0424L89.7437 48.8369H92.0127C92.8581 48.8072 93.5848 48.7182 94.1483 48.5699C95.0975 48.2585 95.8983 47.7394 96.5953 46.9831L100.184 41.5106C100.941 40.4131 101.326 39.8348 101.386 39.7606C101.564 39.4492 101.801 39.2267 102.097 39.0636C102.186 39.0339 102.275 39.0042 102.379 38.9894C102.439 39.0042 102.513 39.0339 102.587 39.0636C102.883 39.2415 103.136 39.464 103.358 39.7606C103.403 39.8348 103.803 40.4131 104.53 41.5106L108.163 46.9831C108.341 47.2055 108.549 47.4131 108.786 47.5911C109.364 48.0509 109.958 48.3771 110.61 48.5699C111.174 48.7182 111.886 48.8072 112.746 48.8369H115L105.716 35V34.9555L115 21.1187H112.716C111.856 21.1483 111.144 21.2373 110.595 21.3856C109.617 21.6822 108.816 22.2309 108.148 23.0318L104.515 28.4449C103.803 29.5424 103.403 30.1504 103.343 30.2394C103.136 30.5064 102.869 30.7288 102.572 30.9068C102.498 30.9365 102.424 30.9661 102.364 31.0106C102.261 30.9661 102.172 30.9365 102.083 30.9068C101.801 30.7288 101.564 30.5064 101.386 30.2394Z" fill="#00112C"/>
<path d="M87.2077 24.2182C87.7712 23.1504 87.9937 22.0826 87.8899 21C86.8072 21.1186 85.9471 21.3114 85.2945 21.5339C84.7755 21.7712 84.3305 22.0975 83.9153 22.5424C83.5742 22.9131 83.3221 23.3136 83.1589 23.7733C83.0106 24.0551 82.9216 24.3665 82.8623 24.7076C82.6844 25.6271 82.625 26.5466 82.6844 27.4958C83.3517 26.9915 83.9894 26.6208 84.642 26.3835C85.2945 26.1462 85.8136 25.8792 86.1992 25.5381C86.5551 25.197 86.8962 24.7669 87.2077 24.2182Z" fill="#00112C"/>
<path d="M78.4131 21.3858C77.8496 21.5044 77.3602 21.7269 76.9301 22.0828C76.4259 22.5871 76.0847 23.2248 75.8771 23.9663L71.8136 39.8053L68.5953 27.6591C68.2691 26.6506 67.9873 25.8349 67.75 25.1972C67.4534 24.4854 67.1568 23.9663 66.875 23.6845C66.1928 22.9726 65.3771 22.5129 64.4131 22.3053C64.25 22.2904 64.0572 22.2608 63.8496 22.2311H62.9597C62.767 22.2608 62.589 22.2756 62.4258 22.3053C61.4322 22.4832 60.6165 22.943 59.9343 23.6845C59.6377 23.9663 59.3411 24.4854 59.0297 25.1972C58.7924 25.8349 58.4958 26.6506 58.1992 27.6591L55.0106 39.8053L50.947 24.0108L50.6356 23.0765C50.3093 22.5426 49.9534 22.1421 49.5233 21.8752C48.8708 21.4451 47.9809 21.193 46.8538 21.1188C45.697 21.0743 45.089 21.104 45 21.1633L52.3411 48.7481C52.9936 48.7926 53.6758 48.7926 54.3877 48.6888C54.9216 48.6443 55.4407 48.4515 55.9301 48.1104C56.197 47.8731 56.464 47.6358 56.6864 47.3985C56.8941 47.2205 57.072 47.0129 57.2203 46.7756C57.3983 46.5383 57.5614 46.2417 57.7097 45.9303C58.1547 44.7735 58.5847 43.6167 59 42.4599L62.6038 28.5044L62.6483 28.4451C62.6631 28.2671 62.7521 28.1337 62.8856 28.015C63.0042 27.926 63.1081 27.8667 63.2267 27.8371C63.286 27.7777 63.3453 27.7629 63.4047 27.7629C63.4195 27.7629 63.4936 27.7777 63.5678 27.8371C63.6568 27.8667 63.7754 27.9112 63.8941 28.015C64.0127 28.1337 64.1017 28.282 64.161 28.4451L64.2055 28.5044L67.75 42.4599C68.1801 43.6167 68.625 44.7735 69.0847 45.9303C69.2034 46.2566 69.3814 46.5383 69.589 46.7756C69.7225 47.0129 69.8856 47.2205 70.0932 47.3985C70.3602 47.6358 70.6123 47.8582 70.8347 48.1104C71.339 48.4515 71.8581 48.6443 72.4216 48.6888C73.1038 48.7777 73.786 48.7926 74.4682 48.7481L81.6907 21.1188C80.6081 21.0743 79.5106 21.1782 78.4131 21.3858Z" fill="#00112C"/>
</svg>
